<svg width="66" height="66" viewBox="0 0 66 66" fill="none" xmlns="http://www.w3.org/2000/svg">
<path d="M65.165 32.6324C65.165 32.7469 65.165 32.8614 65.165 32.976C65.1141 37.6212 60.8889 40.7774 56.2437 40.7774H43.7844C40.4118 40.7774 37.6756 43.5136 37.6756 46.8861C37.6756 47.3188 37.7265 47.7388 37.8029 48.146C38.0702 49.4442 38.6301 50.6914 39.1774 51.9513C39.9537 53.7076 40.7173 55.4511 40.7173 57.2964C40.7173 61.3435 37.9683 65.0215 33.9213 65.1869C33.4759 65.1996 33.0304 65.2124 32.5723 65.2124C14.5896 65.2124 0.00500488 50.6277 0.00500488 32.6324C0.00500488 14.637 14.5896 0.0523682 32.585 0.0523682C50.5804 0.0523682 65.165 14.637 65.165 32.6324ZM16.295 36.7049C16.295 35.6248 15.8659 34.5889 15.1022 33.8252C14.3385 33.0614 13.3026 32.6324 12.2225 32.6324C11.1424 32.6324 10.1066 33.0614 9.34281 33.8252C8.57907 34.5889 8.15 35.6248 8.15 36.7049C8.15 37.785 8.57907 38.8208 9.34281 39.5846C10.1066 40.3483 11.1424 40.7774 12.2225 40.7774C13.3026 40.7774 14.3385 40.3483 15.1022 39.5846C15.8659 38.8208 16.295 37.785 16.295 36.7049ZM16.295 24.4874C17.3751 24.4874 18.411 24.0583 19.1747 23.2946C19.9384 22.5308 20.3675 21.495 20.3675 20.4149C20.3675 19.3348 19.9384 18.2989 19.1747 17.5352C18.411 16.7714 17.3751 16.3424 16.295 16.3424C15.2149 16.3424 14.1791 16.7714 13.4153 17.5352C12.6516 18.2989 12.2225 19.3348 12.2225 20.4149C12.2225 21.495 12.6516 22.5308 13.4153 23.2946C14.1791 24.0583 15.2149 24.4874 16.295 24.4874ZM36.6575 12.2699C36.6575 11.1898 36.2284 10.1539 35.4647 9.39017C34.701 8.62643 33.6651 8.19737 32.585 8.19737C31.5049 8.19737 30.4691 8.62643 29.7053 9.39017C28.9416 10.1539 28.5125 11.1898 28.5125 12.2699C28.5125 13.35 28.9416 14.3858 29.7053 15.1496C30.4691 15.9133 31.5049 16.3424 32.585 16.3424C33.6651 16.3424 34.701 15.9133 35.4647 15.1496C36.2284 14.3858 36.6575 13.35 36.6575 12.2699ZM48.875 24.4874C49.9551 24.4874 50.991 24.0583 51.7547 23.2946C52.5184 22.5308 52.9475 21.495 52.9475 20.4149C52.9475 19.3348 52.5184 18.2989 51.7547 17.5352C50.991 16.7714 49.9551 16.3424 48.875 16.3424C47.7949 16.3424 46.7591 16.7714 45.9953 17.5352C45.2316 18.2989 44.8025 19.3348 44.8025 20.4149C44.8025 21.495 45.2316 22.5308 45.9953 23.2946C46.7591 24.0583 47.7949 24.4874 48.875 24.4874Z" fill="#06B6D4"/>
</svg>
