<svg width="28" height="36" viewBox="0 0 28 36" fill="none" xmlns="http://www.w3.org/2000/svg">
<path d="M13.8809 9.51172C10.1543 9.51172 7.14844 12.5176 7.14844 16.2441C7.14844 19.9707 10.1543 22.9766 13.8809 22.9766C17.6074 22.9766 20.6133 19.9707 20.6133 16.2441C20.6133 12.5176 17.6074 9.51172 13.8809 9.51172ZM13.8809 20.6211C11.4727 20.6211 9.50391 18.6582 9.50391 16.2441C9.50391 13.8301 11.4668 11.8672 13.8809 11.8672C16.2949 11.8672 18.2578 13.8301 18.2578 16.2441C18.2578 18.6582 16.2891 20.6211 13.8809 20.6211ZM22.459 9.23633C22.459 10.1094 21.7559 10.8066 20.8887 10.8066C20.0156 10.8066 19.3184 10.1035 19.3184 9.23633C19.3184 8.36914 20.0215 7.66602 20.8887 7.66602C21.7559 7.66602 22.459 8.36914 22.459 9.23633ZM26.918 10.8301C26.8184 8.72656 26.3379 6.86328 24.7969 5.32812C23.2617 3.79297 21.3984 3.3125 19.2949 3.20703C17.127 3.08398 10.6289 3.08398 8.46094 3.20703C6.36328 3.30664 4.5 3.78711 2.95898 5.32227C1.41797 6.85742 0.943359 8.7207 0.837891 10.8242C0.714844 12.9922 0.714844 19.4902 0.837891 21.6582C0.9375 23.7617 1.41797 25.625 2.95898 27.1602C4.5 28.6953 6.35742 29.1758 8.46094 29.2812C10.6289 29.4043 17.127 29.4043 19.2949 29.2812C21.3984 29.1816 23.2617 28.7012 24.7969 27.1602C26.332 25.625 26.8125 23.7617 26.918 21.6582C27.041 19.4902 27.041 12.998 26.918 10.8301ZM24.1172 23.9844C23.6602 25.1328 22.7754 26.0176 21.6211 26.4805C19.8926 27.166 15.791 27.0078 13.8809 27.0078C11.9707 27.0078 7.86328 27.1602 6.14062 26.4805C4.99219 26.0234 4.10742 25.1387 3.64453 23.9844C2.95898 22.2559 3.11719 18.1543 3.11719 16.2441C3.11719 14.334 2.96484 10.2266 3.64453 8.50391C4.10156 7.35547 4.98633 6.4707 6.14062 6.00781C7.86914 5.32227 11.9707 5.48047 13.8809 5.48047C15.791 5.48047 19.8984 5.32812 21.6211 6.00781C22.7695 6.46484 23.6543 7.34961 24.1172 8.50391C24.8027 10.2324 24.6445 14.334 24.6445 16.2441C24.6445 18.1543 24.8027 22.2617 24.1172 23.9844Z" fill="white"/>
</svg>
