<svg width="27" height="27" viewBox="0 0 27 27" fill="none" xmlns="http://www.w3.org/2000/svg">
<path d="M24.375 0.125H1.86914C0.837891 0.125 0 0.97461 0 2.01758V24.4824C0 25.5254 0.837891 26.375 1.86914 26.375H24.375C25.4062 26.375 26.25 25.5254 26.25 24.4824V2.01758C26.25 0.97461 25.4062 0.125 24.375 0.125ZM7.93359 22.625H4.04297V10.0977H7.93945V22.625H7.93359ZM5.98828 8.38672C4.74023 8.38672 3.73242 7.37305 3.73242 6.13086C3.73242 4.88867 4.74023 3.875 5.98828 3.875C7.23047 3.875 8.24414 4.88867 8.24414 6.13086C8.24414 7.37891 7.23633 8.38672 5.98828 8.38672ZM22.5176 22.625H18.627V16.5312C18.627 15.0781 18.5977 13.209 16.6055 13.209C14.5781 13.209 14.2676 14.791 14.2676 16.4258V22.625H10.377V10.0977H14.1094V11.8086H14.1621C14.6836 10.8242 15.9551 9.78711 17.8477 9.78711C21.7852 9.78711 22.5176 12.3828 22.5176 15.7578V22.625Z" fill="white"/>
</svg>
