<svg width="65" height="65" viewBox="0 0 65 65" fill="none" xmlns="http://www.w3.org/2000/svg">
<path d="M19.9375 48.9592L16.0696 45.0913C15.0056 44.0273 14.63 42.4876 15.1057 41.0606C15.4812 39.9465 15.9819 38.4945 16.5828 36.8297H3.33919C2.26268 36.8297 1.26127 36.2539 0.723016 35.315C0.18476 34.3762 0.197278 33.2246 0.748051 32.2983L7.31978 21.2203C8.94706 18.4789 11.8887 16.8015 15.0682 16.8015H25.3701C25.6705 16.3008 25.971 15.8377 26.2714 15.3871C36.5233 0.265825 51.7947 -0.234877 60.9075 1.44248C62.3596 1.70535 63.4862 2.84445 63.7615 4.29649C65.4389 13.4218 64.9257 28.6807 49.817 38.9326C49.3788 39.233 48.9032 39.5335 48.4025 39.8339V50.1359C48.4025 53.3153 46.7251 56.2695 43.9838 57.8842L32.9057 64.456C31.9794 65.0067 30.8278 65.0193 29.889 64.481C28.9502 63.9427 28.3743 62.9539 28.3743 61.8648V48.446C26.6094 49.0593 25.0697 49.5601 23.9056 49.9356C22.5036 50.3862 20.9765 49.9982 19.925 48.9592H19.9375ZM48.4025 21.8086C49.7304 21.8086 51.004 21.2811 51.943 20.3421C52.882 19.4031 53.4095 18.1295 53.4095 16.8015C53.4095 15.4736 52.882 14.2 51.943 13.261C51.004 12.322 49.7304 11.7945 48.4025 11.7945C47.0745 11.7945 45.801 12.322 44.862 13.261C43.923 14.2 43.3954 15.4736 43.3954 16.8015C43.3954 18.1295 43.923 19.4031 44.862 20.3421C45.801 21.2811 47.0745 21.8086 48.4025 21.8086Z" fill="#EAB308"/>
</svg>
