<svg width="30" height="31" viewBox="0 0 30 31" fill="none" xmlns="http://www.w3.org/2000/svg">
<path d="M26.9162 9.13969C26.9353 9.40617 26.9353 9.67271 26.9353 9.9392C26.9353 18.0673 20.7488 27.4328 9.44162 27.4328C5.95811 27.4328 2.72209 26.4239 0 24.6727C0.494941 24.7298 0.970781 24.7488 1.48477 24.7488C4.35908 24.7488 7.00506 23.778 9.11801 22.122C6.41496 22.0648 4.14973 20.2945 3.36926 17.858C3.75 17.915 4.13068 17.9531 4.53047 17.9531C5.08248 17.9531 5.63455 17.877 6.14848 17.7438C3.33123 17.1727 1.21822 14.6981 1.21822 11.7095V11.6334C2.03672 12.0902 2.98857 12.3758 3.99738 12.4138C2.34129 11.3097 1.25631 9.42522 1.25631 7.29322C1.25631 6.15111 1.56082 5.10416 2.09385 4.19045C5.12051 7.92141 9.67002 10.3579 14.7715 10.6245C14.6763 10.1676 14.6192 9.69176 14.6192 9.21586C14.6192 5.8275 17.3603 3.06738 20.7677 3.06738C22.538 3.06738 24.1369 3.80977 25.2601 5.009C26.6496 4.74252 27.9821 4.22854 29.1623 3.52424C28.7054 4.95193 27.7346 6.15117 26.4593 6.91254C27.6966 6.77936 28.8959 6.43664 29.9999 5.9608C29.1625 7.17902 28.1154 8.264 26.9162 9.13969Z" fill="white"/>
</svg>
